<mxfile host="app.diagrams.net" agent="Mozilla/5.0 (Windows NT 10.0; Win64; x64; rv:133.0) Gecko/20100101 Firefox/133.0" version="25.0.3">
  <diagram name="Página-1" id="DPXetlD3XrPpk3xnJjzK">
    <mxGraphModel dx="880" dy="442" grid="0" gridSize="10" guides="1" tooltips="1" connect="1" arrows="1" fold="1" page="1" pageScale="1" pageWidth="1169" pageHeight="1654" background="#080808" math="0" shadow="0">
      <root>
        <mxCell id="0" />
        <mxCell id="1" parent="0" />
        <mxCell id="ruHqc4geiHLoJ0B3QaW_-77" value="" style="shape=hexagon;perimeter=hexagonPerimeter2;whiteSpace=wrap;html=1;fixedSize=1;fillColor=#000000;strokeColor=#FFFFFF;" vertex="1" parent="1">
          <mxGeometry x="124" y="299" width="264" height="89" as="geometry" />
        </mxCell>
        <mxCell id="ruHqc4geiHLoJ0B3QaW_-4" value="" style="ellipse;whiteSpace=wrap;html=1;fillColor=none;strokeColor=#FFFFFF;" vertex="1" parent="1">
          <mxGeometry x="618" y="318" width="350" height="250" as="geometry" />
        </mxCell>
        <mxCell id="ruHqc4geiHLoJ0B3QaW_-7" value="" style="ellipse;whiteSpace=wrap;html=1;fillColor=none;strokeColor=#FFFFFF;" vertex="1" parent="1">
          <mxGeometry x="668" y="358" width="260" height="180" as="geometry" />
        </mxCell>
        <mxCell id="ruHqc4geiHLoJ0B3QaW_-17" value="" style="endArrow=none;html=1;strokeWidth=1.5;rounded=0;strokeColor=#FFFFFF;exitX=0.352;exitY=0.021;exitDx=0;exitDy=0;exitPerimeter=0;entryX=1;entryY=0.5;entryDx=0;entryDy=0;dashed=1;dashPattern=1 1;" edge="1" parent="1" source="ruHqc4geiHLoJ0B3QaW_-8" target="ruHqc4geiHLoJ0B3QaW_-11">
          <mxGeometry width="50" height="50" relative="1" as="geometry">
            <mxPoint x="873" y="438" as="sourcePoint" />
            <mxPoint x="507" y="339" as="targetPoint" />
          </mxGeometry>
        </mxCell>
        <mxCell id="ruHqc4geiHLoJ0B3QaW_-20" value="p" style="shape=umlActor;verticalLabelPosition=bottom;verticalAlign=top;html=1;outlineConnect=0;strokeColor=#FFFFFF;fontColor=#FFFFFF;fontFamily=Fraunces;fontSource=https%3A%2F%2Ffonts.googleapis.com%2Fcss%3Ffamily%3DFraunces;" vertex="1" parent="1">
          <mxGeometry x="744" y="496" width="27" height="54" as="geometry" />
        </mxCell>
        <mxCell id="ruHqc4geiHLoJ0B3QaW_-27" value="n" style="shape=umlActor;verticalLabelPosition=bottom;verticalAlign=top;html=1;outlineConnect=0;strokeColor=#FFFFFF;fontColor=#FFFFFF;fontFamily=Fraunces;fontSource=https%3A%2F%2Ffonts.googleapis.com%2Fcss%3Ffamily%3DFraunces;" vertex="1" parent="1">
          <mxGeometry x="796" y="475.5" width="26.5" height="53" as="geometry" />
        </mxCell>
        <mxCell id="ruHqc4geiHLoJ0B3QaW_-47" value="" style="group" vertex="1" connectable="0" parent="1">
          <mxGeometry x="708" y="388" width="165" height="125" as="geometry" />
        </mxCell>
        <mxCell id="ruHqc4geiHLoJ0B3QaW_-8" value="" style="ellipse;whiteSpace=wrap;html=1;strokeColor=#FFFFFF;fillColor=none;strokeWidth=1;" vertex="1" parent="ruHqc4geiHLoJ0B3QaW_-47">
          <mxGeometry width="165" height="125" as="geometry" />
        </mxCell>
        <mxCell id="ruHqc4geiHLoJ0B3QaW_-9" value="&lt;div&gt;&lt;font style=&quot;font-size: 16px;&quot;&gt;ObjetoImposible&lt;/font&gt;&lt;/div&gt;&lt;div&gt;&lt;font style=&quot;font-size: 10px;&quot;&gt;Oficina de Artes Mediales&lt;/font&gt;&lt;br&gt;&lt;/div&gt;" style="text;html=1;align=center;verticalAlign=middle;resizable=0;points=[];autosize=1;strokeColor=none;fillColor=none;fontFamily=Fraunces;fontSource=https%3A%2F%2Ffonts.googleapis.com%2Fcss%3Ffamily%3DFraunces;fontColor=#FFFFFF;" vertex="1" parent="ruHqc4geiHLoJ0B3QaW_-47">
          <mxGeometry x="7.5" y="37.5" width="150" height="50" as="geometry" />
        </mxCell>
        <mxCell id="ruHqc4geiHLoJ0B3QaW_-48" value="" style="group" vertex="1" connectable="0" parent="1">
          <mxGeometry x="756" y="296" width="164" height="138" as="geometry" />
        </mxCell>
        <mxCell id="ruHqc4geiHLoJ0B3QaW_-18" value="" style="ellipse;shape=cloud;whiteSpace=wrap;html=1;fillColor=#0D0D0D;strokeColor=#FFFFFF;" vertex="1" parent="ruHqc4geiHLoJ0B3QaW_-48">
          <mxGeometry width="164.00000000000003" height="138" as="geometry" />
        </mxCell>
        <mxCell id="ruHqc4geiHLoJ0B3QaW_-10" value="Creación" style="text;html=1;align=center;verticalAlign=middle;resizable=0;points=[];autosize=1;strokeColor=none;fillColor=none;fontFamily=Fraunces;fontSource=https%3A%2F%2Ffonts.googleapis.com%2Fcss%3Ffamily%3DFraunces;fontColor=#FFFFFF;" vertex="1" parent="ruHqc4geiHLoJ0B3QaW_-48">
          <mxGeometry x="40.32786885245902" y="52.36607142857142" width="70" height="30" as="geometry" />
        </mxCell>
        <mxCell id="ruHqc4geiHLoJ0B3QaW_-58" value="" style="group" vertex="1" connectable="0" parent="1">
          <mxGeometry x="148" y="350" width="119" height="27" as="geometry" />
        </mxCell>
        <mxCell id="ruHqc4geiHLoJ0B3QaW_-43" value="" style="shape=process;whiteSpace=wrap;html=1;backgroundOutline=1;strokeColor=#FFFFFF;fillColor=#000000;" vertex="1" parent="ruHqc4geiHLoJ0B3QaW_-58">
          <mxGeometry width="119" height="26" as="geometry" />
        </mxCell>
        <mxCell id="ruHqc4geiHLoJ0B3QaW_-42" value="MÉTODOS" style="text;html=1;align=center;verticalAlign=middle;resizable=0;points=[];autosize=1;strokeColor=none;fillColor=none;fontFamily=Fraunces;fontSource=https%3A%2F%2Ffonts.googleapis.com%2Fcss%3Ffamily%3DFraunces;fontColor=#FFFFFF;" vertex="1" parent="ruHqc4geiHLoJ0B3QaW_-58">
          <mxGeometry x="18" y="1" width="80" height="26" as="geometry" />
        </mxCell>
        <mxCell id="ruHqc4geiHLoJ0B3QaW_-60" value="" style="group" vertex="1" connectable="0" parent="1">
          <mxGeometry x="783" y="310" width="122" height="112" as="geometry" />
        </mxCell>
        <mxCell id="ruHqc4geiHLoJ0B3QaW_-61" value="" style="ellipse;shape=cloud;whiteSpace=wrap;html=1;fillColor=#0D0D0D;strokeColor=#FFFFFF;" vertex="1" parent="ruHqc4geiHLoJ0B3QaW_-60">
          <mxGeometry width="122" height="112" as="geometry" />
        </mxCell>
        <mxCell id="ruHqc4geiHLoJ0B3QaW_-62" value="Creación" style="text;html=1;align=center;verticalAlign=middle;resizable=0;points=[];autosize=1;strokeColor=none;fillColor=none;fontFamily=Fraunces;fontSource=https%3A%2F%2Ffonts.googleapis.com%2Fcss%3Ffamily%3DFraunces;fontColor=#FFFFFF;" vertex="1" parent="ruHqc4geiHLoJ0B3QaW_-60">
          <mxGeometry x="30" y="42.5" width="70" height="30" as="geometry" />
        </mxCell>
        <mxCell id="ruHqc4geiHLoJ0B3QaW_-69" value="" style="group" vertex="1" connectable="0" parent="1">
          <mxGeometry x="500" y="380" width="214" height="136" as="geometry" />
        </mxCell>
        <mxCell id="ruHqc4geiHLoJ0B3QaW_-68" value="" style="group" vertex="1" connectable="0" parent="ruHqc4geiHLoJ0B3QaW_-69">
          <mxGeometry width="214" height="136" as="geometry" />
        </mxCell>
        <mxCell id="ruHqc4geiHLoJ0B3QaW_-36" value="" style="shape=switch;whiteSpace=wrap;html=1;strokeColor=#FFFFFF;fillColor=#000000;" vertex="1" parent="ruHqc4geiHLoJ0B3QaW_-68">
          <mxGeometry x="-4" width="218" height="136" as="geometry" />
        </mxCell>
        <mxCell id="ruHqc4geiHLoJ0B3QaW_-67" value="" style="shape=switch;whiteSpace=wrap;html=1;strokeColor=#FFFFFF;fillColor=#000000;" vertex="1" parent="ruHqc4geiHLoJ0B3QaW_-68">
          <mxGeometry x="20.82162162162162" y="16" width="171.2" height="106" as="geometry" />
        </mxCell>
        <mxCell id="ruHqc4geiHLoJ0B3QaW_-34" value="Investigación" style="text;html=1;align=center;verticalAlign=middle;resizable=0;points=[];autosize=1;strokeColor=none;fillColor=none;fontFamily=Fraunces;fontSource=https%3A%2F%2Ffonts.googleapis.com%2Fcss%3Ffamily%3DFraunces;fontColor=#FFFFFF;fontSize=12;" vertex="1" parent="ruHqc4geiHLoJ0B3QaW_-69">
          <mxGeometry x="59.5" y="54" width="94" height="26" as="geometry" />
        </mxCell>
        <mxCell id="ruHqc4geiHLoJ0B3QaW_-73" value="" style="group" vertex="1" connectable="0" parent="1">
          <mxGeometry x="571" y="644" width="150" height="30" as="geometry" />
        </mxCell>
        <mxCell id="ruHqc4geiHLoJ0B3QaW_-74" value="" style="shape=process;whiteSpace=wrap;html=1;backgroundOutline=1;strokeColor=#FFFFFF;fillColor=none;" vertex="1" parent="ruHqc4geiHLoJ0B3QaW_-73">
          <mxGeometry y="2" width="150" height="26" as="geometry" />
        </mxCell>
        <mxCell id="ruHqc4geiHLoJ0B3QaW_-75" value="OBJETOS" style="text;html=1;align=center;verticalAlign=middle;resizable=0;points=[];autosize=1;strokeColor=none;fillColor=none;fontFamily=Fraunces;fontSource=https%3A%2F%2Ffonts.googleapis.com%2Fcss%3Ffamily%3DFraunces;fontColor=#FFFFFF;" vertex="1" parent="ruHqc4geiHLoJ0B3QaW_-73">
          <mxGeometry x="38" y="2" width="74" height="26" as="geometry" />
        </mxCell>
        <mxCell id="ruHqc4geiHLoJ0B3QaW_-76" value="" style="endArrow=none;html=1;strokeWidth=1.5;rounded=0;strokeColor=#FFFFFF;exitX=0.274;exitY=0.96;exitDx=0;exitDy=0;exitPerimeter=0;dashed=1;dashPattern=1 1;entryX=0.514;entryY=0.038;entryDx=0;entryDy=0;entryPerimeter=0;" edge="1" parent="1" source="ruHqc4geiHLoJ0B3QaW_-4" target="ruHqc4geiHLoJ0B3QaW_-75">
          <mxGeometry width="50" height="50" relative="1" as="geometry">
            <mxPoint x="776" y="401" as="sourcePoint" />
            <mxPoint x="725" y="617" as="targetPoint" />
          </mxGeometry>
        </mxCell>
        <mxCell id="ruHqc4geiHLoJ0B3QaW_-11" value="" style="shape=process;whiteSpace=wrap;html=1;backgroundOutline=1;strokeColor=#FFFFFF;fillColor=none;" vertex="1" parent="1">
          <mxGeometry x="213" y="308" width="150" height="26" as="geometry" />
        </mxCell>
        <mxCell id="ruHqc4geiHLoJ0B3QaW_-12" value="METODOLOGÍAS" style="text;html=1;align=center;verticalAlign=middle;resizable=0;points=[];autosize=1;strokeColor=none;fillColor=none;fontFamily=Fraunces;fontSource=https%3A%2F%2Ffonts.googleapis.com%2Fcss%3Ffamily%3DFraunces;fontColor=#FFFFFF;" vertex="1" parent="1">
          <mxGeometry x="228" y="306" width="120" height="30" as="geometry" />
        </mxCell>
        <mxCell id="ruHqc4geiHLoJ0B3QaW_-78" value="" style="endArrow=none;html=1;strokeWidth=1.5;rounded=0;strokeColor=#FFFFFF;exitX=0;exitY=0;exitDx=0;exitDy=0;exitPerimeter=0;entryX=1;entryY=0.5;entryDx=0;entryDy=0;dashed=1;dashPattern=1 1;" edge="1" parent="1" source="ruHqc4geiHLoJ0B3QaW_-36" target="ruHqc4geiHLoJ0B3QaW_-43">
          <mxGeometry width="50" height="50" relative="1" as="geometry">
            <mxPoint x="776" y="401" as="sourcePoint" />
            <mxPoint x="373" y="331" as="targetPoint" />
          </mxGeometry>
        </mxCell>
        <mxCell id="ruHqc4geiHLoJ0B3QaW_-79" value="" style="endArrow=classic;html=1;rounded=0;strokeColor=#FFFFFF;entryX=0.5;entryY=1;entryDx=0;entryDy=0;exitX=0;exitY=0;exitDx=65;exitDy=15;exitPerimeter=0;" edge="1" parent="1" source="ruHqc4geiHLoJ0B3QaW_-40" target="ruHqc4geiHLoJ0B3QaW_-77">
          <mxGeometry width="50" height="50" relative="1" as="geometry">
            <mxPoint x="136" y="456" as="sourcePoint" />
            <mxPoint x="186" y="406" as="targetPoint" />
          </mxGeometry>
        </mxCell>
        <mxCell id="ruHqc4geiHLoJ0B3QaW_-80" value="" style="endArrow=classic;html=1;rounded=0;strokeColor=#FFFFFF;entryX=0.625;entryY=1;entryDx=0;entryDy=0;exitX=0;exitY=0;exitDx=65;exitDy=15;exitPerimeter=0;" edge="1" parent="1" source="ruHqc4geiHLoJ0B3QaW_-53" target="ruHqc4geiHLoJ0B3QaW_-77">
          <mxGeometry width="50" height="50" relative="1" as="geometry">
            <mxPoint x="123" y="465" as="sourcePoint" />
            <mxPoint x="266" y="398" as="targetPoint" />
          </mxGeometry>
        </mxCell>
        <mxCell id="ruHqc4geiHLoJ0B3QaW_-81" value="" style="endArrow=classic;html=1;rounded=0;strokeColor=#FFFFFF;entryX=0.731;entryY=1;entryDx=0;entryDy=0;exitX=0;exitY=0;exitDx=65;exitDy=15;exitPerimeter=0;entryPerimeter=0;" edge="1" parent="1" source="ruHqc4geiHLoJ0B3QaW_-54" target="ruHqc4geiHLoJ0B3QaW_-77">
          <mxGeometry width="50" height="50" relative="1" as="geometry">
            <mxPoint x="227" y="481" as="sourcePoint" />
            <mxPoint x="299" y="398" as="targetPoint" />
          </mxGeometry>
        </mxCell>
        <mxCell id="ruHqc4geiHLoJ0B3QaW_-83" value="" style="endArrow=classic;html=1;rounded=0;strokeColor=#FFFFFF;entryX=0.375;entryY=1;entryDx=0;entryDy=0;exitX=0;exitY=0;exitDx=65;exitDy=15;exitPerimeter=0;" edge="1" parent="1" source="ruHqc4geiHLoJ0B3QaW_-56" target="ruHqc4geiHLoJ0B3QaW_-77">
          <mxGeometry width="50" height="50" relative="1" as="geometry">
            <mxPoint x="123" y="465" as="sourcePoint" />
            <mxPoint x="266" y="398" as="targetPoint" />
          </mxGeometry>
        </mxCell>
        <mxCell id="ruHqc4geiHLoJ0B3QaW_-40" value="Forenses" style="shape=note;whiteSpace=wrap;html=1;backgroundOutline=1;darkOpacity=0.05;strokeColor=#FFFFFF;fillColor=#000000;fontColor=#FFFFFF;fontFamily=Fraunces;fontSource=https%3A%2F%2Ffonts.googleapis.com%2Fcss%3Ffamily%3DFraunces;" vertex="1" parent="1">
          <mxGeometry x="48" y="440" width="80" height="81.89105403011514" as="geometry" />
        </mxCell>
        <mxCell id="ruHqc4geiHLoJ0B3QaW_-53" value="Periodístic." style="shape=note;whiteSpace=wrap;html=1;backgroundOutline=1;darkOpacity=0.05;strokeColor=#FFFFFF;fillColor=#000000;fontColor=#FFFFFF;fontFamily=Fraunces;fontSource=https%3A%2F%2Ffonts.googleapis.com%2Fcss%3Ffamily%3DFraunces;" vertex="1" parent="1">
          <mxGeometry x="152" y="455.7790079716563" width="80" height="81.89105403011514" as="geometry" />
        </mxCell>
        <mxCell id="ruHqc4geiHLoJ0B3QaW_-54" value="Proyectual" style="shape=note;whiteSpace=wrap;html=1;backgroundOutline=1;darkOpacity=0.05;strokeColor=#FFFFFF;fillColor=#000000;fontColor=#FFFFFF;fontFamily=Fraunces;fontSource=https%3A%2F%2Ffonts.googleapis.com%2Fcss%3Ffamily%3DFraunces;" vertex="1" parent="1">
          <mxGeometry x="256" y="478.5487156775908" width="80" height="81.89105403011514" as="geometry" />
        </mxCell>
        <mxCell id="ruHqc4geiHLoJ0B3QaW_-55" value="Programac." style="shape=note;whiteSpace=wrap;html=1;backgroundOutline=1;darkOpacity=0.05;strokeColor=#FFFFFF;fillColor=#000000;fontColor=#FFFFFF;fontFamily=Fraunces;fontSource=https%3A%2F%2Ffonts.googleapis.com%2Fcss%3Ffamily%3DFraunces;" vertex="1" parent="1">
          <mxGeometry x="161.5" y="560.439769707706" width="80" height="81.89105403011514" as="geometry" />
        </mxCell>
        <mxCell id="ruHqc4geiHLoJ0B3QaW_-56" value="Archivístic." style="shape=note;whiteSpace=wrap;html=1;backgroundOutline=1;darkOpacity=0.05;strokeColor=#FFFFFF;fillColor=#000000;fontColor=#FFFFFF;fontFamily=Fraunces;fontSource=https%3A%2F%2Ffonts.googleapis.com%2Fcss%3Ffamily%3DFraunces;" vertex="1" parent="1">
          <mxGeometry x="58" y="546.0589016829052" width="80" height="81.89105403011514" as="geometry" />
        </mxCell>
        <mxCell id="ruHqc4geiHLoJ0B3QaW_-57" value="Cartográfic." style="shape=note;whiteSpace=wrap;html=1;backgroundOutline=1;darkOpacity=0.05;strokeColor=#FFFFFF;fillColor=#000000;fontColor=#FFFFFF;fontFamily=Fraunces;fontSource=https%3A%2F%2Ffonts.googleapis.com%2Fcss%3Ffamily%3DFraunces;" vertex="1" parent="1">
          <mxGeometry x="268" y="583.6089459698849" width="80" height="81.89105403011514" as="geometry" />
        </mxCell>
        <mxCell id="ruHqc4geiHLoJ0B3QaW_-84" value="" style="endArrow=classic;html=1;rounded=0;strokeColor=#FFFFFF;entryX=0;entryY=0.5;entryDx=0;entryDy=0;exitX=1;exitY=0.5;exitDx=0;exitDy=0;" edge="1" parent="1" source="ruHqc4geiHLoJ0B3QaW_-77" target="ruHqc4geiHLoJ0B3QaW_-74">
          <mxGeometry width="50" height="50" relative="1" as="geometry">
            <mxPoint x="331" y="504" as="sourcePoint" />
            <mxPoint x="327" y="398" as="targetPoint" />
          </mxGeometry>
        </mxCell>
        <mxCell id="ruHqc4geiHLoJ0B3QaW_-87" value="" style="shape=cylinder3;whiteSpace=wrap;html=1;boundedLbl=1;backgroundOutline=1;size=15;strokeWidth=1;fillColor=#000000;strokeColor=#FFFFFF;" vertex="1" parent="1">
          <mxGeometry x="477" y="707" width="60" height="80" as="geometry" />
        </mxCell>
        <mxCell id="ruHqc4geiHLoJ0B3QaW_-88" value="PAPER" style="text;whiteSpace=wrap;html=1;fontColor=#FFFFFF;fontFamily=Fraunces;fontSource=https%3A%2F%2Ffonts.googleapis.com%2Fcss%3Ffamily%3DFraunces;align=center;" vertex="1" parent="1">
          <mxGeometry x="479" y="742" width="56" height="36" as="geometry" />
        </mxCell>
        <mxCell id="ruHqc4geiHLoJ0B3QaW_-92" value="" style="shape=cylinder3;whiteSpace=wrap;html=1;boundedLbl=1;backgroundOutline=1;size=15;strokeWidth=1;fillColor=#000000;strokeColor=#FFFFFF;" vertex="1" parent="1">
          <mxGeometry x="557" y="727" width="60" height="80" as="geometry" />
        </mxCell>
        <mxCell id="ruHqc4geiHLoJ0B3QaW_-93" value="PAPER" style="text;whiteSpace=wrap;html=1;fontColor=#FFFFFF;fontFamily=Fraunces;fontSource=https%3A%2F%2Ffonts.googleapis.com%2Fcss%3Ffamily%3DFraunces;align=center;" vertex="1" parent="1">
          <mxGeometry x="559" y="762" width="56" height="36" as="geometry" />
        </mxCell>
        <mxCell id="ruHqc4geiHLoJ0B3QaW_-94" value="" style="shape=cylinder3;whiteSpace=wrap;html=1;boundedLbl=1;backgroundOutline=1;size=15;strokeWidth=1;fillColor=#000000;strokeColor=#FFFFFF;" vertex="1" parent="1">
          <mxGeometry x="627" y="697" width="60" height="80" as="geometry" />
        </mxCell>
        <mxCell id="ruHqc4geiHLoJ0B3QaW_-95" value="PAPER" style="text;whiteSpace=wrap;html=1;fontColor=#FFFFFF;fontFamily=Fraunces;fontSource=https%3A%2F%2Ffonts.googleapis.com%2Fcss%3Ffamily%3DFraunces;align=center;" vertex="1" parent="1">
          <mxGeometry x="629" y="732" width="56" height="36" as="geometry" />
        </mxCell>
      </root>
    </mxGraphModel>
  </diagram>
</mxfile>
